<?xml version="1.0" encoding="UTF-8"?>
<svg id="Layer_2" data-name="Layer 2" xmlns="http://www.w3.org/2000/svg" viewBox="0 0 1228.08 538.86">
  <defs>
    <style>
      .cls-1 {
        font-family: Bilderberg-regular, Bilderberg;
        font-size: 92.35px;
      }

      .cls-1, .cls-2 {
        fill: #423bc5;
      }

      .cls-3 {
        fill: #fff;
      }

      .cls-4 {
        fill: #4e4f9c;
      }

      .cls-5 {
        fill: #d57082;
      }

      .cls-6 {
        letter-spacing: -.07em;
      }

      .cls-7 {
        letter-spacing: -.01em;
      }
    </style>
  </defs>
  <g id="OBJECTS">
    <g>
      <path class="cls-3" d="M429.23,97.83C332.09-35.6,132.5-31.84,40.15,104.82-30.47,209.33-5.59,354.26,96.41,427.77l32.98-10.95c6.51,5.36,13.41,9.14,21.69,11.21,1,.25,1.16,1.31,2.25-.24,4.24-16.45-9.06-30.48-19.47-41.48l1.96-1.5c-.43,3.83,16.06,14.64,16.97,13.98,5.52-10.91,11.51-22.54,13.73-34.73,3.7-20.33-4.23-22.85-8.25-40.14-1.93-8.3-4.31-26.21-4.36-34.6-.05-8.36,3.43-16.99.83-25.76,22.57-5.59,40.51-20.88,49.01-42.55,18.82,26.59,47.36,58.78,83.86,48.93,2.62,18.53,10.27,38.49,30.53,42.9,1.53,8.25-.72,25.2-11.89,24.69-2.15-.1-5.98-2.45-7.67-1.24-10.66,23.45-29.72,42.58-55.45,48.47l.66,15.93c37.93-.49,75.54,5.82,111.73,16.59,5.89,1.75,19.11,7.87,23.72,8.3,3.33.31,14.17-9.53,17.24-12.28,89.5-80.27,103.62-218.13,32.76-315.46ZM315.58,230.99c-52.56-18.31-110.89-17.98-163.77-1v-17.98c52.32-19.67,111.61-18.65,163.77,1v17.98ZM317.11,204.06c-44.41-16.12-91.95-19.55-138.15-9.35-6.52,1.44-24.29,8.08-28.62,8.15-9.22.16-33.07-14.28-39.44-21.35-29.55-32.78-30.58-71.33,6.05-98.77,4.91-3.68,15.79-8.31,18.84-11.12,2.58-2.37,6.89-11.13,10.06-14.91,11.26-13.41,28.16-22.43,45.7-24.21,6.08-.62,14.58-.75,20.67-.28,6.84.53,17.98,4.85,22.98,4.86,4.71,0,16.13-4.42,22.93-4.91,24.64-1.79,48.97,4.31,65.42,23.54,3.49,4.08,7.52,12.7,10.49,15.48,6.11,5.71,19.34,10.63,27.5,18.44,42.95,41.1,6.61,105.82-44.42,114.42Z"/>
      <path class="cls-3" d="M133.72,233.34l72.84-14.33c41.8,4.98,83.6,9.96,125.41,14.94.89,25.78,1.78,51.56,2.67,77.33l-28.53,56.2-50.45,17.13-36.5.11-42.23-4.69-56.63-96.82,13.43-49.87Z"/>
      <path class="cls-3" d="M223.05,384.8l-.59,16.1c-7.5,1.31-15.2,1.1-22.76,2.01-5.15.62-20.96,2.19-24.12,4.84-1.74,1.46-3.07,4.31-5.56,6.43-1.05.89-10.49,7.07-10.89,6.58l-4.49-16.99,9.63-15.81,13.82-1.17c-1.17-3.9-10.96-1.02-11.98-1.99,2.39-10.3,6.72-20.2,7-30.96,12.39,16.05,28.24,30.85,49.93,30.96Z"/>
      <path class="cls-5" d="M249.03,351.85c-2.1-10.49-6.37-5.82-13.33-6.08-3.23-.12-9.55-1.38-12.85-2.21-1.29-.33-5.3-1.39-5.78-2.69,20.03,2.78,37.81-1.5,50.9-17.51l5.01-7.46c-.63,15.23-8.85,30.99-23.94,35.96Z"/>
      <path class="cls-4" d="M184.1,283.94l-15.98,3.98c7.64-9.13,36.63-17.42,36.03,1.52-.53,16.75-27.25,11.37-20.06-5.49Z"/>
      <path class="cls-3" d="M202.82,467.92c14.78-2.85,18.48,19.66,3.67,21.72-14.14,1.96-17.09-19.14-3.67-21.72Z"/>
      <path class="cls-3" d="M262.7,425.97c17.76-4.07,19.04,20.24,4.56,21.54-13.06,1.17-16.02-18.91-4.56-21.54Z"/>
      <path class="cls-3" d="M201.79,425.97c14.59-3.36,19.93,16.53,6.69,20.72-15.32,4.85-19.57-17.76-6.69-20.72Z"/>
      <path class="cls-3" d="M263.74,467.92c17.16-3.29,17.66,24.04.83,21.72-11.48-1.58-12.34-19.52-.83-21.72Z"/>
      <path class="cls-4" d="M159.15,443.74c1.91-3.41-4.14-10-3.9-11.34.15-.86,2.41-2.46,3.15-3.91s.38-3.66.96-4.51c.69-1,13.52-7.39,15.27-10.19,8.11,11.98-5.49,24.58-15.48,29.94Z"/>
      <path class="cls-4" d="M159.14,456.71c1.95-3.07.16-6.97,1.51-9.97,1.26-2.81,10.1-6.29,11.97-9.98,5.76,10.37-3.05,19.13-13.48,19.95Z"/>
      <path class="cls-4" d="M281.96,289.93l-3.6,5.85c-9.75-3.77-19.65-4.15-29.36.11,7.76-10.1,21.98-10.84,32.95-5.97Z"/>
      <g>
        <path class="cls-2" d="M167.05,457.75c2.93,7.33,4.79,14.98,4.06,22.94-2.79-.22-1.97-6.68-5-4.48,2.06,12.15,11.8,26.7-4.97,32.45-1.86-12.57-21.4-19.31-23.75-30.69-1.72-8.35,2.89-16.27,9.46-21.11,7.26,1.75,12.85,4.05,20.19.88Z"/>
        <path class="cls-2" d="M157.14,456.72c-13.3-.46-25.36-10.59-25.04-24.47.45-19.77,25.04,2.4,25.04,9.99v14.48Z"/>
        <path class="cls-2" d="M156.01,303.86s-43.47,50.43-17.92,81.62c0,0,7.3,8.96,15.93,13.94,0,0,15.59-19.91,16.59-51.43,0,0-15.26-30.19-14.6-44.13Z"/>
        <path class="cls-2" d="M136.19,386.31c6.42,5.83,10.65,11.53,13.31,15.67,2.94,4.58,5.35,8.41,6.41,14.12.97,5.21.39,9.66-.23,12.52-3.04-.21-7.72-1.37-13.02-3.86-6.64-3.11-13.52-8.59-14.52-18.04-.07-1.9.04-4.19.58-6.72,1.47-6.84,5.28-11.44,7.47-13.69Z"/>
        <path class="cls-2" d="M165.14,383.96s17.92,2.99,27.87-9.29c0,0-14.02-10.86-20.24-22.56,0,0-1,21.57-7.63,31.85Z"/>
        <path class="cls-2" d="M164.29,387.97c-3.31,5.27-6.62,10.53-9.93,15.8.77,2.39,1.53,4.87,2.26,7.42.94,3.28,1.78,6.48,2.53,9.58,2.87-1.05,9.7-3.99,15.05-11.15,4.17-5.58,5.53-11.16,6.04-14.14.02-.56,0-1.16-.04-1.78-.22-2.89-1.18-5.23-2.08-6.9-2.47.21-4.94.42-7.42.63-2.13.18-4.27.36-6.4.54Z"/>
        <path class="cls-2" d="M153.79,231.36s-20.13,19.35,2.88,76.31v-43.24s30.3-2.65,49.33-41.36c0,0,38.05,61.94,82.95,48.44,0,0,4.2,38.93,31.19,42.47,0,0,3.1,33.4-17.47,23.23,0,0-21.46,34.29-29.2,35.83,0,0,59.06-7.52,55.74-62.6l-5.97-32.74s3.76-34.73-5.31-44.24c0,0-78.64-31.63-164.13-2.1Z"/>
      </g>
      <g>
        <path class="cls-3" d="M688.79,61.88c1.61,1.61-2.24,21.63-2.27,25.51-.01,1.97-.05,3.7,1.72,4.88h20.61c4.45-9.04-.59-20.55.54-30.38h36.88v94.41s-36.95-.48-36.95-.48c-2.62-1.84.02-9,.11-11.96.21-6.62-.1-13.35-.2-19.96-1.28-2.04-21-1.73-21.61.51-1.44,5.04,3.19,29.29.13,31.41-5.71,2.05-12.78-.65-18.02-.65-3.62,0-17.42,3.5-18.78-.65l-.15-92.62h37.97Z"/>
        <path class="cls-3" d="M826.02,61.88c3.51,1.12,3.8,24.04,3.8,28.22-10.04.3-20.95-2.32-30.98-1.14-1.86.22-3.8.28-3.78,2.78-.06,1.37.78,1.92,1.77,2.59,4.42,3.02,23.52.55,29.76.56,3.26,2.39-3,22.83-1.11,27.76l-28.6-.94-1.31.86c-1.53,2.17-.33,5.5,2.24,5.5h34.17l-4.45,29.17-31.84-2.09-37.48,1.14V61.88h67.81Z"/>
        <path class="cls-3" d="M610.14,59.23c8.94.12,16.66,1.96,24.45,6.41,3.76,2.15,10.14,5.84,9.54,10.59-.41,3.27-12.01,24.04-14.62,24.54-4.75-1.3-8.17-6.17-13.1-7.18-30.75-6.27-27.99,39.9,2.16,29.89,4.41-1.46,6.23-4.24,9.98-6.26,3.41,5.3,15.09,18.65,14.79,24.41-.41,8.2-19.56,15.86-26.81,16.71-73.24,8.59-76.9-100.02-6.39-99.1Z"/>
        <path class="cls-3" d="M906.84,123.18l-2.21,1.18c-4.24-1.03-26.23-3.33-28.01-.48l.94,32.4c-12.78-.9-25.19-.63-37.98,0,.96-30.84,2.22-61.85-.95-92.69l3.62-1.76,66.77-.5c3.68,1.79,1.75,10.33,2.18,14.1.3,2.64,3.03,15.88,2.15,16.83-5.08-.65-34.88-5.19-36.87-2.15-.19,1.64-.18,2.57,1.07,3.79,3.34,3.27,23.84,1.46,29.3.53v28.75Z"/>
      </g>
      <text class="cls-1" transform="translate(566.96 452.51)"><tspan x="0" y="0">Ba</tspan><tspan class="cls-6" x="118.45" y="0">k</tspan><tspan x="168.01" y="0">es &amp; m</tspan><tspan class="cls-7" x="455.15" y="0">o</tspan><tspan x="506.1" y="0">re ..</tspan></text>
      <g>
        <path class="cls-3" d="M595.92,353.96c-19.86,0-29.83-.04-29.91-.12-.08-.08-.12-.2-.12-.36l.12-.24c4.59-7.99,6.96-22.2,7.12-42.61.16-6.49.24-21.05.24-43.68s-.08-37.07-.24-43.32c-.16-20.41-2.53-34.62-7.12-42.61l-.12-.24c0-.16.04-.28.12-.36s28.56-.12,85.46-.12c12.9,0,24.21,1.64,33.95,4.93,9.73,3.28,17.86,7.66,24.39,13.12,6.53,5.46,11.45,11.63,14.78,18.52,3.32,6.88,4.99,13.97,4.99,21.25s-1.72,14.42-5.16,21.42c-3.44,7-8.61,13.29-15.49,18.87-6.88,5.58-15.53,10.03-25.93,13.35-10.41,3.32-22.61,4.98-36.62,4.98h-27.89l.24,13.89c.16,20.41,2.53,34.62,7.12,42.61l.12.24c0,.16-.04.28-.12.36-.08.08-10.05.12-29.91.12ZM638.05,281.91c10.21,0,18.69-2.12,25.46-6.35,6.77-4.23,11.85-9.67,15.25-16.32,3.4-6.65,5.1-13.61,5.1-20.89s-1.68-14.1-5.04-20.71c-3.36-6.61-8.45-12.03-15.25-16.26-6.81-4.23-15.31-6.35-25.52-6.35-12.82,0-19.29.04-19.41.12-.12.08-.18,29-.18,86.76h19.58Z"/>
        <path class="cls-3" d="M797.1,355.26c-2.3,0-4.55-.12-6.77-.36-13.14-1.5-24.09-5.52-32.88-12.05-8.78-6.53-15.37-14.6-19.76-24.21-4.39-9.61-6.59-19.64-6.59-30.09,0-8.55,1.48-16.89,4.45-25.04,2.97-8.15,7.46-15.51,13.47-22.08,6.8-7.2,14.46-12.56,22.97-16.08,8.5-3.52,17.07-5.28,25.7-5.28,2.69,0,5.38.16,8.07.47,14.72,2.14,26.27,8.19,34.66,18.16,8.62,10.13,12.98,22.43,13.06,36.91,0,4.91-.89,8.57-2.67,10.98-1.78,2.41-4.29,4.02-7.54,4.81-3.25.79-7,1.19-11.28,1.19h-56.5c-.32,0-.47.16-.47.47,1.11,7.83,4.27,14.94,9.49,21.3,5.22,6.37,12.34,11.06,21.36,14.06,2.93.95,5.97,1.42,9.14,1.42,12.18,0,23.94-7,35.25-21.01l.36-.24c.16,0,2.18,2.73,6.05,8.19l-.12.36c-5.06,8.94-10.82,16.22-17.27,21.84-6.45,5.62-13.27,9.73-20.47,12.34-7.2,2.61-14.44,3.92-21.72,3.92ZM793.18,279.54c5.3,0,10.15-.24,14.54-.71,4.39-.47,8.15-1.48,11.28-3.03,3.13-1.54,5.52-3.9,7.18-7.06,1.34-2.77,2.02-5.66,2.02-8.66,0-3.4-.83-6.67-2.49-9.79-1.66-3.13-4.12-5.68-7.36-7.66-3.24-1.98-7.16-2.97-11.75-2.97-5.54,0-10.56,1.84-15.07,5.52s-8.21,8.47-11.1,14.36c-2.89,5.9-4.73,12.33-5.52,19.29,0,.16.04.3.12.42.08.12,6.13.22,18.16.3Z"/>
        <path class="cls-3" d="M917.69,356.69c-6.81,0-13.55-.75-20.24-2.26-6.69-1.5-12.7-3.72-18.04-6.65-5.34-2.93-9.63-6.57-12.88-10.92-3.25-4.35-4.87-9.42-4.87-15.19.24-8.55,3.56-15.86,9.97-21.96,6.41-6.09,14.5-10.78,24.27-14.06,9.77-3.28,19.56-4.93,29.38-4.93,3.56,0,7.08.24,10.56.71.31,0,.47-.16.47-.47v-.95c0-18.52-4.31-30.94-12.94-37.27-4.43-3.16-8.98-4.75-13.65-4.75-4.19,0-7.28,1.21-9.26,3.62-1.98,2.41-2.97,4.93-2.97,7.54,0,2.22.61,4.15,1.84,5.82,1.23,1.66,2.95,2.49,5.16,2.49,1.5,0,2.93-.24,4.27-.71,1.34-.47,2.37-1.07,3.09-1.78l.36-.24c.24,0,.39.16.47.47.39,1.74.59,3.36.59,4.87,0,5.14-1.74,9.18-5.22,12.11-3.48,2.93-7.52,4.39-12.11,4.39l-2.14-.12c-5.7-.63-10.19-2.99-13.47-7.06-3.28-4.07-4.93-8.8-4.93-14.18,0-4.19,1.15-8.43,3.44-12.7,2.29-4.27,5.91-8.07,10.86-11.39,4.94-3.32,11.41-5.82,19.41-7.48,4.99-.95,9.81-1.42,14.48-1.42,10.6,0,20.12,2.02,28.54,6.05,8.43,4.04,15.19,9.22,20.3,15.55,5.1,6.33,8.01,13.06,8.72,20.18.24,2.45.36,5.98.36,10.56l-.12,10.92c-.08,6.25-.12,14.64-.12,25.16.24,10.05.89,18.69,1.96,25.93,1.07,7.24,2.83,12.8,5.28,16.68,0,.24-.04.42-.12.53-.08.12-3.17.18-9.26.18-2.93,0-5.56-.28-7.89-.83-2.33-.55-4.61-1.21-6.82-1.96-2.22-.75-4.49-1.4-6.82-1.96-2.33-.55-4.93-.83-7.77-.83-2.06,0-3.94.32-5.64.95-1.7.63-3.42,1.39-5.16,2.26-2.37,1.27-5.18,2.43-8.43,3.5-3.25,1.07-7.56,1.6-12.94,1.6ZM926.47,344.1c2.85,0,5.93-.39,9.26-1.19.24,0,.36-.16.36-.47l.24-51.87c0-.16-.06-.32-.18-.47-.12-.16-1.48-.24-4.09-.24-6.17,0-11.39,1.5-15.67,4.51-4.27,3.01-7.5,6.85-9.67,11.51-2.18,4.67-3.26,9.42-3.26,14.24,0,4.12.83,7.99,2.49,11.63,1.66,3.64,4.19,6.61,7.6,8.9,3.4,2.3,7.72,3.44,12.94,3.44Z"/>
        <path class="cls-3" d="M1023.44,353.96c-19.86,0-29.83-.04-29.91-.12-.08-.08-.12-.2-.12-.36l.12-.24c4.59-7.99,6.96-22.23,7.12-42.73.24-7.67.36-14.48.36-20.41,0-13.37-.59-23.32-1.78-29.85-1.19-6.53-3.13-11.65-5.82-15.37v-.24c0-.24.12-.4.36-.47,7.91-1.9,17.35-5.5,28.31-10.8,10.96-5.3,18.65-10.05,23.09-14.24l.36-.12c.08,0,.18.04.3.12.12.08.18,2.95.18,8.61s.06,8.53.18,8.61c.12.08.22.12.3.12l.24-.12c10.6-9.1,21.25-13.65,31.93-13.65,6.41,0,12.13,1.48,17.15,4.45,5.02,2.97,9,6.71,11.93,11.22,2.85,4.83,4.27,9.77,4.27,14.84,0,5.86-1.7,11.08-5.1,15.67-3.64,4.91-8.71,7.4-15.19,7.48-5.22,0-9.61-1.46-13.17-4.39-3.56-2.93-5.34-6.96-5.34-12.11,0-1.58.2-3.2.59-4.87.08-.24.24-.36.47-.36l.36.12c.71.71,1.74,1.33,3.09,1.84,1.34.52,2.77.77,4.27.77,2.21,0,3.94-.85,5.16-2.55,1.23-1.7,1.84-3.62,1.84-5.76,0-3.88-1.9-6.92-5.7-9.14-2.77-1.58-5.98-2.37-9.61-2.37-3.96,0-7.99,1.27-12.11,3.8-4.11,2.53-7.62,6.88-10.5,13.06-2.89,6.17-4.57,14.6-5.04,25.28l-.24,10.33.36,20.53c.24,10.13.89,18.81,1.96,26.05,1.07,7.24,2.83,12.84,5.28,16.79,0,.16-.04.3-.12.42-.08.12-10.01.18-29.79.18Z"/>
        <path class="cls-3" d="M1176.2,353.96h-58.99c-.32,0-.52-.16-.59-.47l.12-.24c2.37-3.88,4.11-9.44,5.22-16.68,1.11-7.24,1.78-15.92,2.02-26.05.08-3.8.12-9.5.12-17.09v-61.13c0-3.09-.14-6.69-.41-10.8-.28-4.11-.95-8.25-2.02-12.4-1.07-4.15-2.71-7.93-4.93-11.33l-.12-.36c.08-.24.2-.36.36-.36,7.99-1.9,17.47-5.5,28.43-10.8,10.96-5.3,18.61-10.05,22.97-14.24l.36-.12c.08,0,.18.04.3.12.12.08.18,18.24.18,54.48,0,47.56.04,73.75.12,78.57l.12,5.46c.16,20.49,2.53,34.74,7.12,42.73l.12.24c0,.32-.16.47-.47.47Z"/>
      </g>
    </g>
  </g>
</svg>