<svg width="3213" height="3884" viewBox="0 0 3213 3884" fill="none" xmlns="http://www.w3.org/2000/svg">
<path d="M196.93 3884L196.93 3883.94L64.5538 3883.94C12.94 3835.28 0.0362675 3745.69 0.0362149 3706.98C0.0362195 3602.28 43.048 3539.24 64.5538 3520.8C17.364 3491.31 1.87958 3395.46 0.0362305 3351.21C-1.41213 3232.44 40.8876 3177.45 63.3536 3163.89C60.0609 3160.71 56.9301 3157.36 53.9513 3153.87C37.0147 3136.9 25.651 3114.56 18.3634 3089.62C4.43493 3050.61 0.0363087 3010.67 0.0362463 2988.08C0.0362509 2883.37 43.048 2820.33 64.5538 2801.9C17.364 2772.4 1.87961 2676.55 0.0362619 2632.31C-1.41217 2513.53 40.8877 2458.55 63.3537 2444.98C60.0602 2441.8 56.9287 2438.45 53.9494 2434.95C37.0141 2417.99 25.6507 2395.66 18.3634 2370.71C4.43477 2331.7 0.0362768 2291.76 0.0362778 2269.17C0.0363158 2164.46 43.0481 2101.42 64.5539 2082.99C17.3641 2053.49 1.87971 1957.64 0.0362933 1913.4C-1.36501 1798.49 38.1813 1743.28 61.0998 1727.53C12.3618 1678.2 0.0363074 1591.78 0.036309 1553.95C0.0363136 1449.24 43.0481 1386.2 64.5539 1367.77C17.3642 1338.27 1.87976 1242.42 0.0363246 1198.18C-1.43834 1077.26 42.4337 1022.45 64.5539 1010.16C37.6712 989.478 22.3141 957.169 14.3645 920.856C3.57725 885.858 0.0363966 851.627 0.0363406 831.352C0.0363452 726.65 43.0481 663.607 64.5539 645.174C17.3641 615.68 1.87971 519.825 0.0363562 475.585C-1.4383 354.661 42.4337 299.852 64.5539 287.563C-12.1295 228.576 -0.577823 71.2762 14.7834 -0.000139795L3212.93 0L3212.93 3884L196.93 3884Z" fill="#00C0FF"/>
</svg>
