<svg width="6043" height="3213" viewBox="0 0 6043 3213" fill="none" xmlns="http://www.w3.org/2000/svg">
<path d="M6042.51 3146.6C5993.85 3198.22 5902.42 3212.96 5863.71 3212.96C5759 3212.96 5695.96 3169.95 5677.53 3148.45C5648.03 3195.64 5552.18 3211.12 5507.94 3212.96C5389.17 3214.41 5334.18 3172.11 5320.61 3149.65C5317.43 3152.94 5314.08 3156.07 5310.59 3159.05C5293.63 3175.99 5271.29 3187.35 5246.34 3194.64C5207.33 3208.56 5167.4 3212.96 5144.8 3212.96C5040.1 3212.96 4977.05 3169.95 4958.62 3148.45C4929.13 3195.64 4833.27 3211.12 4789.03 3212.96C4670.26 3214.41 4615.27 3172.11 4601.71 3149.65C4598.52 3152.94 4595.17 3156.07 4591.68 3159.05C4574.72 3175.99 4552.38 3187.35 4527.43 3194.64C4488.42 3208.57 4448.49 3212.96 4425.89 3212.96C4321.19 3212.96 4258.14 3169.95 4239.71 3148.45C4210.22 3195.64 4114.36 3211.12 4070.12 3212.96C3951.35 3214.41 3896.36 3172.11 3882.8 3149.65C3879.62 3152.94 3876.26 3156.07 3872.77 3159.05C3855.81 3175.99 3833.47 3187.35 3808.53 3194.64C3769.51 3208.56 3729.58 3212.96 3706.98 3212.96C3602.28 3212.96 3539.24 3169.95 3520.8 3148.45C3491.31 3195.64 3395.46 3211.12 3351.21 3212.96C3232.44 3214.41 3177.45 3172.11 3163.89 3149.65C3160.71 3152.94 3157.36 3156.07 3153.87 3159.05C3136.9 3175.99 3114.57 3187.35 3089.62 3194.64C3050.61 3208.57 3010.67 3212.96 2988.08 3212.96C2883.37 3212.96 2820.33 3169.95 2801.9 3148.45C2772.4 3195.64 2676.55 3211.12 2632.31 3212.96C2513.53 3214.41 2458.55 3172.11 2444.98 3149.65C2441.8 3152.94 2438.45 3156.07 2434.96 3159.05C2417.99 3175.99 2395.66 3187.35 2370.71 3194.64C2331.7 3208.57 2291.76 3212.96 2269.17 3212.96C2164.46 3212.96 2101.42 3169.95 2082.99 3148.45C2053.49 3195.64 1957.64 3211.12 1913.4 3212.96C1798.49 3214.37 1743.28 3174.82 1727.53 3151.9C1678.2 3200.64 1591.78 3212.96 1553.95 3212.96C1449.24 3212.96 1386.2 3169.95 1367.77 3148.45C1338.27 3195.64 1242.42 3211.12 1198.18 3212.96C1077.26 3214.44 1022.45 3170.57 1010.16 3148.45C989.478 3175.33 957.17 3190.69 920.856 3198.64C885.858 3209.42 851.626 3212.96 831.352 3212.96C726.65 3212.96 663.607 3169.95 645.174 3148.45C615.68 3195.64 519.825 3211.12 475.585 3212.96C354.661 3214.44 299.853 3170.57 287.563 3148.45C228.576 3225.13 71.2763 3213.58 0 3198.22V0H6042.51V3146.6Z" fill="#FB7185"/>
</svg>
